<?xml version="1.0" standalone="no"?><!DOCTYPE svg PUBLIC "-//W3C//DTD SVG 1.1//EN" "http://www.w3.org/Graphics/SVG/1.1/DTD/svg11.dtd"><svg t="1628683518183" class="icon" viewBox="0 0 1297 1024" version="1.1" xmlns="http://www.w3.org/2000/svg" p-id="2817" xmlns:xlink="http://www.w3.org/1999/xlink" width="253.3203125" height="200"><defs><style type="text/css"></style></defs><path d="M1146.948267 982.8352c-56.661333 0-102.4-65.536-102.4-146.773333v-576.853334c0-20.48 11.400533-36.864 25.736533-36.864h115.234133c35.2256 0 63.829333 40.96 63.829334 91.477334v522.24c0 81.237333-45.738667 146.773333-102.4 146.773333zM1037.7216 287.470933v570.709334c0 42.461867 35.2256 77.073067 78.506667 77.073066 43.281067 0 78.506667-34.6112 78.506666-77.141333V306.244267a19.524267 19.524267 0 0 0-19.797333-19.456H1037.7216v0.682666z" p-id="2818" fill="#dbdbdb"></path><path d="M1159.850667 981.469867H138.922667c-76.868267 0-138.8544-65.536-138.8544-146.773334V92.637867C0.068267 42.120533 38.843733 1.160533 86.6304 1.160533h910.472533c47.786667 0 86.493867 40.96 86.493867 91.477334v728.405333c0 76.458667 38.161067 86.698667 75.5712 86.698667 19.387733 0 34.884267 16.384 34.884267 36.864 0 20.48-15.496533 36.864-34.2016 36.864zM79.189333 61.44C69.358933 61.44 61.508267 69.905067 61.508267 80.4864v765.7472c0 41.5744 31.402667 75.3664 70.109866 75.3664H1037.7216c-11.810133-24.644267-18.363733-54.954667-18.363733-89.429333V80.418133c0-10.581333-7.850667-19.0464-17.681067-19.0464H79.2576z" p-id="2819" fill="#dbdbdb"></path><path d="M889.856 208.008533H188.893867c-18.8416 0-33.860267-12.151467-33.860267-27.306666 0-15.1552 15.018667-27.306667 33.860267-27.306667h700.962133c18.8416 0 33.860267 12.151467 33.860267 27.306667 0 14.677333-15.018667 27.306667-33.860267 27.306666z m-455.202133 339.285334H183.0912c-15.5648 0-28.0576-16.384-28.0576-36.864v-164.522667c0-20.48 12.4928-36.864 28.0576-36.864H434.244267c15.5648 0 27.989333 16.384 27.989333 36.864v165.205333c0.546133 19.797333-11.8784 36.181333-27.511467 36.181334zM198.0416 505.173333h215.04V354.986667H198.0416v150.186666z m661.0944-141.5168H584.157867c-18.158933 0-33.1776-12.356267-33.1776-27.306666 0-14.9504 15.018667-27.306667 33.1776-27.306667h274.978133c18.158933 0 33.1776 12.356267 33.1776 27.306667 0 15.428267-14.404267 27.306667-33.1776 27.306666z m0 165.888H584.157867c-18.158933 0-33.1776-12.356267-33.1776-27.306666 0-14.9504 15.018667-27.306667 33.1776-27.306667h274.978133c18.158933 0 33.1776 12.356267 33.1776 27.306667 0 15.428267-14.404267 27.306667-33.1776 27.306666z" p-id="2820" fill="#dbdbdb"></path></svg>