<?xml version="1.0" standalone="no"?><!DOCTYPE svg PUBLIC "-//W3C//DTD SVG 1.1//EN" "http://www.w3.org/Graphics/SVG/1.1/DTD/svg11.dtd"><svg t="1628772320214" class="icon" viewBox="0 0 1024 1024" version="1.1" xmlns="http://www.w3.org/2000/svg" p-id="2107" xmlns:xlink="http://www.w3.org/1999/xlink" width="200" height="200"><defs><style type="text/css"></style></defs><path d="M602.112 242.688h-312.32c-17.408 0-31.744 4.608-31.744 22.016s14.336 20.48 31.744 20.48h312.32c17.408 0 31.232-3.584 31.232-20.48 0-17.408-13.824-22.016-31.232-22.016z m31.744 209.92c0-17.408-14.336-22.016-31.744-22.016h-312.32c-17.408 0-31.232 5.12-31.232 22.528 0 17.408 13.824 19.968 31.232 19.968h312.32c17.408 0 31.744-3.072 31.744-20.48z m-344.064 164.864c-17.408 0-31.232 4.608-31.232 22.016s13.824 20.48 31.232 20.48h189.44c17.408 0 31.232-2.048 31.232-18.944s-13.824-23.552-31.232-23.552h-189.44z m-152.064 299.52c-37.376 0-68.096-29.696-68.608-67.584V109.568c0-37.376 30.72-67.584 68.608-67.584h624.64c37.888 0 68.608 30.208 68.608 67.584v326.656c22.016 6.144 23.04 7.68 43.008 17.92V109.568c0-71.68-38.4-109.568-111.104-109.568H138.24C65.024 0 26.112 37.888 26.112 109.568v739.84c0 71.68 38.4 109.568 111.104 109.568h327.168c-24.064-23.552-17.92-22.016-38.4-41.984H137.728z m588.8-270.848c-15.872 0-18.944 16.384-18.944 31.232v112.128c-0.512 7.168 2.56 14.336 7.68 19.456l84.992 77.312c15.36 10.24 22.016 9.216 33.28-1.536 11.264-11.264-6.656-28.16-17.408-38.912l-69.12-61.952v-106.496c0-14.848-4.608-31.232-20.48-31.232z m41.984-142.848l-0.512-40.96-111.104 52.736 112.128 70.144-0.512-39.424c45.568 7.168 88.064 28.672 121.344 61.44 41.984 41.472 65.024 96.256 65.024 154.624 0 58.368-23.04 113.664-65.024 154.624-41.472 41.472-97.792 64.512-156.672 64-58.368 0-114.688-23.04-156.672-64-40.448-39.936-64-94.208-64.512-151.04 0.512-1.536 0.512-3.072 0.512-4.608-1.024-23.04-4.096-31.232-21.504-31.232-17.408 0-21.504 13.824-21.504 31.232v1.024c0 155.136 107.008 261.12 264.192 261.12s264.192-105.984 264.192-261.12c0-142.848-88.576-241.664-229.376-258.56z" p-id="2108" fill="#707070"></path></svg>