<?xml version="1.0" standalone="no"?><!DOCTYPE svg PUBLIC "-//W3C//DTD SVG 1.1//EN" "http://www.w3.org/Graphics/SVG/1.1/DTD/svg11.dtd"><svg t="1628132225161" class="icon" viewBox="0 0 1024 1024" version="1.1" xmlns="http://www.w3.org/2000/svg" p-id="2964" xmlns:xlink="http://www.w3.org/1999/xlink" width="200" height="200"><defs><style type="text/css"></style></defs><path d="M512 512m-512 0a512 512 0 1 0 1024 0 512 512 0 1 0-1024 0Z" fill="#5C688B" fill-opacity=".7" p-id="2965"></path><path d="M728.847059 457.788235A54.211765 54.211765 0 0 1 783.058824 512v216.847059a54.211765 54.211765 0 0 1-54.211765 54.211765H512a54.211765 54.211765 0 0 1 0-108.42353h162.635294V512a54.211765 54.211765 0 0 1 54.211765-54.211765zM512 240.941176a54.211765 54.211765 0 1 1 0 108.42353h-162.635294V512A54.211765 54.211765 0 1 1 240.941176 512V295.152941A54.211765 54.211765 0 0 1 295.152941 240.941176H512z" fill="#FFFFFF" p-id="2966"></path></svg>