<?xml version="1.0" standalone="no"?><!DOCTYPE svg PUBLIC "-//W3C//DTD SVG 1.1//EN" "http://www.w3.org/Graphics/SVG/1.1/DTD/svg11.dtd"><svg t="1628254044617" class="icon" viewBox="0 0 1024 1024" version="1.1" xmlns="http://www.w3.org/2000/svg" p-id="3368" xmlns:xlink="http://www.w3.org/1999/xlink" width="200" height="200"><defs><style type="text/css"></style></defs><path d="M411.05 365.62a32 32 0 1 1-45.25 45.27L160.77 206v152.13a32 32 0 0 1-32 32 32 32 0 0 1-32-32l-0.06-229.38v-0.23V127.12v-0.68l0.06-0.81a0.61 0.61 0 0 0 0-0.14c0-0.25 0.07-0.51 0.1-0.76 0-0.21 0-0.41 0.08-0.62v-0.2c0-0.24 0.08-0.47 0.12-0.71v-0.08c0-0.18 0.06-0.36 0.1-0.54a2.17 2.17 0 0 1 0-0.25c0-0.22 0.1-0.43 0.15-0.65v-0.1c0-0.18 0.08-0.35 0.13-0.53a2 2 0 0 1 0.06-0.26c0-0.2 0.11-0.4 0.17-0.6v-0.1c0.06-0.18 0.11-0.37 0.16-0.56s0-0.18 0.08-0.26 0.11-0.34 0.17-0.51a0.49 0.49 0 0 1 0-0.11c0.07-0.21 0.13-0.41 0.21-0.62s0-0.17 0.08-0.25 0.12-0.28 0.17-0.43v-0.1c0.09-0.24 0.18-0.47 0.28-0.71l0.09-0.22c0-0.1 0.09-0.21 0.14-0.31l0.06-0.14 0.35-0.78 0.09-0.18c0-0.09 0.09-0.18 0.14-0.27a0.61 0.61 0 0 0 0-0.12l0.44-0.85s0-0.09 0.07-0.14l0.13-0.21a0.54 0.54 0 0 1 0.07-0.13c0.16-0.3 0.33-0.59 0.51-0.88a0.75 0.75 0 0 1 0.07-0.12v-0.08l0.16-0.23c0.18-0.3 0.37-0.6 0.56-0.89l0.07-0.1 0.23-0.31c0.2-0.29 0.39-0.57 0.6-0.85l0.36-0.47c0.2-0.25 0.39-0.51 0.6-0.75s0.34-0.41 0.52-0.61 0.32-0.39 0.5-0.58c0.35-0.38 0.7-0.76 1.07-1.13 0.36-0.37 0.73-0.72 1.11-1.07l0.57-0.49 0.61-0.53 0.75-0.58 0.48-0.37c0.27-0.21 0.55-0.4 0.83-0.59l0.44-0.31 0.87-0.56 0.45-0.28 0.87-0.5 0.5-0.28 0.83-0.42 0.58-0.29 0.76-0.35 0.7-0.3 0.68-0.27 0.57-0.22h0.23l0.6-0.2c0.22-0.08 0.43-0.16 0.65-0.22l0.22-0.07 0.53-0.15 0.73-0.21h0.26l0.49-0.12c0.26-0.06 0.53-0.13 0.8-0.18h0.23l0.5-0.09 0.84-0.15h0.19l0.58-0.07 0.83-0.11h0.14l0.77-0.06 0.72-0.05H128.23l229.33 0.12a32 32 0 0 1 0 64l-152-0.08z m225 54.76a31.91 31.91 0 0 0 22.66-9.38L863.6 206l-0.08 152a32 32 0 0 0 32 32 32 32 0 0 0 32-32l0.12-229.33v-1.6c0-0.22 0-0.43-0.05-0.64s0-0.58-0.07-0.87a0.49 0.49 0 0 0 0-0.12c0-0.26-0.06-0.52-0.1-0.78s0-0.43-0.08-0.64a1.1 1.1 0 0 0 0-0.18c0-0.27-0.1-0.54-0.14-0.81s-0.06-0.36-0.1-0.54 0-0.15 0-0.23c0-0.26-0.12-0.51-0.18-0.77l-0.12-0.53-0.06-0.24c-0.06-0.25-0.13-0.48-0.2-0.72s-0.1-0.37-0.16-0.55a1.82 1.82 0 0 0-0.07-0.25c-0.06-0.22-0.14-0.43-0.21-0.64l-0.21-0.62-0.08-0.23c-0.07-0.19-0.15-0.37-0.22-0.56s-0.18-0.46-0.28-0.69c0-0.07-0.05-0.13-0.07-0.2s-0.15-0.32-0.22-0.49l-0.35-0.77a1 1 0 0 1-0.07-0.15c-0.07-0.15-0.15-0.29-0.22-0.43s-0.28-0.56-0.43-0.83l-0.06-0.12-0.21-0.38-0.5-0.87-0.06-0.09-0.22-0.36-0.56-0.87-0.05-0.07c-0.08-0.13-0.18-0.25-0.26-0.37-0.19-0.28-0.39-0.56-0.59-0.83v-0.06c-0.11-0.15-0.23-0.29-0.35-0.44l-0.56-0.72v-0.05l-0.52-0.6c-0.15-0.18-0.3-0.36-0.46-0.53-0.34-0.37-0.68-0.73-1-1.08-0.36-0.35-0.72-0.7-1.09-1h-0.06l-0.54-0.46c-0.17-0.15-0.34-0.31-0.51-0.45l-0.08-0.06-0.72-0.56-0.34-0.27-0.07-0.06-0.1-0.06c-0.26-0.2-0.54-0.39-0.81-0.58l-0.22-0.16-0.13-0.09-0.11-0.07-0.85-0.55-0.21-0.13a0.57 0.57 0 0 0-0.13-0.08l-0.12-0.08-0.86-0.49-0.2-0.11a0.83 0.83 0 0 0-0.16-0.09l-0.15-0.09-0.82-0.42-0.18-0.09-0.23-0.11-0.19-0.09-0.76-0.34-0.12-0.06-0.35-0.15a2 2 0 0 0-0.22-0.09l-0.68-0.27-0.14-0.06-0.41-0.16-0.26-0.09-0.6-0.2h-0.16l-0.47-0.16-0.27-0.08-0.54-0.15-0.23-0.07-0.47-0.13-0.28-0.07-0.5-0.11-0.25-0.06-0.52-0.12h-0.25l-0.52-0.09h-0.23l-0.58-0.1h-0.21l-0.59-0.07h-0.13l-0.67-0.09h-0.15l-0.78-0.06-0.7-0.05H895.97l-229.39 0.06a32 32 0 0 0 0 64h152.13l-204.94 205a32 32 0 0 0 22.63 54.63z m-270.41 193l-204.88 205 0.08-152a32 32 0 0 0-32-32 32 32 0 0 0-32 32l-0.12 229.33V898.07l0.06 0.77a0.57 0.57 0 0 1 0 0.13c0 0.27 0.07 0.53 0.1 0.79v0.06c0 0.19 0 0.37 0.07 0.56v0.2c0 0.26 0.09 0.52 0.14 0.79v0.06c0 0.16 0 0.32 0.08 0.48s0 0.16 0.05 0.24c0 0.27 0.12 0.54 0.18 0.82s0.07 0.31 0.11 0.47a2 2 0 0 1 0.06 0.26c0.07 0.25 0.15 0.5 0.22 0.75s0.09 0.34 0.14 0.51a2.33 2.33 0 0 1 0.07 0.25c0.08 0.23 0.16 0.45 0.23 0.68l0.2 0.57a2.25 2.25 0 0 0 0.08 0.24c0.07 0.2 0.15 0.4 0.23 0.6l0.26 0.65c0 0.06 0 0.13 0.08 0.2s0.16 0.35 0.23 0.52l0.33 0.73 0.08 0.17c0.07 0.15 0.15 0.3 0.23 0.45s0.27 0.53 0.41 0.8l0.06 0.13 0.24 0.41 0.47 0.82 0.06 0.11 0.25 0.39 0.53 0.82 0.06 0.09c0.09 0.14 0.19 0.27 0.29 0.41s0.36 0.52 0.55 0.77v0.06c0.12 0.17 0.25 0.33 0.38 0.49s0.34 0.45 0.53 0.67c0.18 0.23 0.38 0.45 0.57 0.67l0.41 0.46c0.32 0.36 0.65 0.7 1 1l0.07 0.07c0.32 0.33 0.66 0.64 1 0.95l0.12 0.11 0.06 0.06 0.48 0.41 0.51 0.44 0.11 0.1a0.27 0.27 0 0 1 0.08 0.07l0.68 0.53 0.32 0.25 0.13 0.1 0.1 0.07c0.26 0.19 0.52 0.38 0.79 0.56l0.17 0.13 0.2 0.13 0.11 0.08 0.84 0.54 0.3 0.2 0.13 0.07 0.85 0.49 0.37 0.21 0.15 0.08 0.81 0.42 0.42 0.21 0.18 0.08 0.76 0.34 0.47 0.22 0.23 0.09 0.68 0.26 0.55 0.22 0.25 0.09 0.6 0.2 0.63 0.22 0.28 0.07 0.53 0.16 0.71 0.2 0.27 0.06 0.51 0.12 0.77 0.18h0.25l0.52 0.09 0.79 0.14h0.2l0.6 0.08 0.8 0.1h0.14c0.26 0 0.53 0 0.8 0.06h2.35l229.38-0.06a32 32 0 0 0 0-64H205.68l204.94-205a32 32 0 0 0-45.27-45.24z m562 282.28l-0.06-229.38a32 32 0 0 0-32-32 32 32 0 0 0-32 32v152.13l-205-205a32 32 0 0 0-45.24 45.27l205 204.89-152-0.08a32 32 0 0 0 0 64l229.33 0.12h1.67l0.68-0.06c0.27 0 0.54 0 0.81-0.06h0.13l0.81-0.1 0.6-0.08h0.19c0.28 0 0.55-0.1 0.82-0.15l0.52-0.09h0.24l0.79-0.18 0.5-0.12 0.26-0.06 0.72-0.21 0.54-0.15 0.25-0.07 0.65-0.22 0.6-0.2 0.24-0.08 0.56-0.23 0.69-0.27 0.17-0.07 0.49-0.22 0.76-0.34h0.17l0.42-0.21 0.83-0.43 0.51-0.28c0.28-0.16 0.57-0.32 0.86-0.5l0.45-0.28 0.87-0.55 0.44-0.32 0.82-0.58 0.5-0.39c0.25-0.19 0.49-0.37 0.73-0.57 0.2-0.16 0.39-0.33 0.58-0.5s0.37-0.31 0.55-0.48c0.35-0.32 0.69-0.65 1-1l0.08-0.08c0.32-0.32 0.64-0.66 1-1l0.11-0.12v-0.05l0.49-0.57 0.3-0.33 0.18-0.21v-0.07l0.59-0.75a1.47 1.47 0 0 0 0.1-0.13l0.21-0.26 0.06-0.09 0.6-0.84 0.23-0.33 0.06-0.09c0.2-0.3 0.38-0.59 0.57-0.89a3.45 3.45 0 0 0 0.2-0.32 0.41 0.41 0 0 0 0.07-0.11c0.18-0.29 0.34-0.59 0.51-0.88l0.19-0.35s0.05-0.09 0.08-0.14c0.15-0.28 0.29-0.56 0.43-0.85 0.07-0.13 0.14-0.25 0.2-0.39s0-0.11 0.08-0.17l0.36-0.79c0.06-0.15 0.14-0.3 0.2-0.45l0.09-0.22c0.09-0.23 0.18-0.47 0.28-0.71s0.14-0.35 0.21-0.53 0-0.16 0.08-0.24l0.21-0.63 0.21-0.61a2.68 2.68 0 0 0 0.07-0.27c0.06-0.19 0.11-0.38 0.17-0.57s0.13-0.45 0.19-0.68l0.06-0.26c0-0.18 0.08-0.36 0.12-0.54s0.13-0.5 0.18-0.75v-0.24c0-0.08 0.07-0.37 0.1-0.55s0.1-0.52 0.14-0.79a1.23 1.23 0 0 0 0-0.19c0-0.22 0.06-0.43 0.09-0.64s0.07-0.51 0.09-0.77a0.57 0.57 0 0 0 0-0.13c0-0.29 0-0.57 0.07-0.85s0-0.43 0.05-0.64v-0.07V896a0.76 0.76 0 0 0 0-0.15z" fill="#333333" p-id="3369"></path></svg>