<?xml version="1.0" standalone="no"?><!DOCTYPE svg PUBLIC "-//W3C//DTD SVG 1.1//EN" "http://www.w3.org/Graphics/SVG/1.1/DTD/svg11.dtd"><svg t="1627780933057" class="icon" viewBox="0 0 1024 1024" version="1.1" xmlns="http://www.w3.org/2000/svg" p-id="12488" xmlns:xlink="http://www.w3.org/1999/xlink" width="200" height="200"><defs><style type="text/css"></style></defs><path d="M128 576.128h256a64 64 0 0 1 64 64v256a64 64 0 0 1-64 64H128a64 64 0 0 1-64-64v-256a64 64 0 0 1 64-64z m0 64v256h256v-256H128z m512-64h256a64 64 0 0 1 64 64v256a64 64 0 0 1-64 64H640a64 64 0 0 1-64-64v-256a64 64 0 0 1 64-64z m0 64v256h256v-256H640z m-512-576h256a64 64 0 0 1 64 64v256a64 64 0 0 1-64 64H128a64 64 0 0 1-64-64v-256a64 64 0 0 1 64-64z m0 64v256h256v-256H128z" fill="#f2bb31" p-id="12489"></path><path d="M896 64a64 64 0 0 1 64 64v256a64 64 0 0 1-64 64H640a64 64 0 0 1-64-64V128a64 64 0 0 1 64-64h256z m0 64H640v256h256V128z" fill="#f4ea2a" p-id="12490"></path></svg>