<?xml version="1.0" standalone="no"?><!DOCTYPE svg PUBLIC "-//W3C//DTD SVG 1.1//EN" "http://www.w3.org/Graphics/SVG/1.1/DTD/svg11.dtd"><svg t="1628511166064" class="icon" viewBox="0 0 1024 1024" version="1.1" xmlns="http://www.w3.org/2000/svg" p-id="2013" xmlns:xlink="http://www.w3.org/1999/xlink" width="200" height="200"><defs><style type="text/css"></style></defs><path d="M113.371429 800.914286l-40.228572 73.142857c-7.314286 10.971429-3.657143 25.6 10.971429 32.914286 3.657143 3.657143 7.314286 3.657143 10.971428 3.657142 7.314286 0 18.285714-3.657143 21.942857-10.971428l40.228572-73.142857c-14.628571-10.971429-25.6-18.285714-40.228572-29.257143 0 0 0 3.657143-3.657142 3.657143zM669.257143 800.914286c-14.628571 7.314286-25.6 18.285714-40.228572 25.6l40.228572 69.485714c3.657143 7.314286 10.971429 10.971429 21.942857 10.971429 3.657143 0 7.314286 0 10.971429-3.657143 10.971429-7.314286 14.628571-21.942857 10.971428-32.914286l-43.885714-69.485714zM391.314286 808.228571c-179.2 0-325.485714-146.285714-325.485715-325.485714s146.285714-325.485714 325.485715-325.485714c157.257143 0 288.914286 113.371429 321.828571 263.314286h51.2c-29.257143-175.542857-182.857143-310.857143-369.371428-310.857143C186.514286 106.057143 18.285714 274.285714 18.285714 479.085714c0 208.457143 168.228571 376.685714 376.685715 376.685715 186.514286 0 340.114286-135.314286 369.371428-314.514286h-51.2c-29.257143 149.942857-160.914286 266.971429-321.828571 266.971428z" p-id="2014"></path><path d="M570.514286 416.914286H621.714286c-29.257143-98.742857-117.028571-171.885714-226.742857-171.885715-131.657143 0-237.714286 106.057143-237.714286 237.714286s106.057143 237.714286 237.714286 237.714286c109.714286 0 201.142857-73.142857 226.742857-175.542857h-51.2c-25.6 73.142857-95.085714 124.342857-175.542857 124.342857-102.4 0-186.514286-84.114286-186.514286-186.514286S292.571429 296.228571 394.971429 296.228571c80.457143-3.657143 149.942857 47.542857 175.542857 120.685715z" p-id="2015"></path><path d="M998.4 548.571429l-58.514286-65.828572 58.514286-69.485714c7.314286-10.971429 7.314286-25.6-3.657143-32.914286-10.971429-7.314286-25.6-7.314286-32.914286 3.657143l-58.514285 69.485714v3.657143h-58.514286l32.914286-40.228571c7.314286-10.971429 7.314286-25.6-3.657143-32.914286-10.971429-7.314286-25.6-7.314286-32.914286 3.657143l-58.514286 69.485714h-365.714285c-14.628571 0-25.6 10.971429-25.6 25.6s10.971429 25.6 25.6 25.6h362.057143c0 3.657143 3.657143 3.657143 3.657142 3.657143l62.171429 73.142857c3.657143 7.314286 10.971429 7.314286 18.285714 7.314286s10.971429-3.657143 14.628572-7.314286c10.971429-7.314286 10.971429-25.6 3.657143-32.914286L841.142857 504.685714h58.514286c0 3.657143 3.657143 3.657143 3.657143 3.657143l62.171428 73.142857c3.657143 7.314286 10.971429 7.314286 18.285715 7.314286s10.971429-3.657143 14.628571-7.314286c7.314286-7.314286 10.971429-21.942857 0-32.914285z" p-id="2016"></path><path d="M416.914286 416.914286h54.857143c-18.285714-21.942857-47.542857-36.571429-80.457143-36.571429-54.857143 0-102.4 43.885714-102.4 102.4 0 54.857143 43.885714 102.4 102.4 102.4 32.914286 0 62.171429-14.628571 80.457143-40.228571h-58.514286c-18.285714 0-32.914286-7.314286-43.885714-18.285715-7.314286-7.314286-14.628571-18.285714-18.285715-32.914285v-10.971429-7.314286c7.314286-36.571429 32.914286-58.514286 65.828572-58.514285z" p-id="2017"></path></svg>