<?xml version="1.0" standalone="no"?><!DOCTYPE svg PUBLIC "-//W3C//DTD SVG 1.1//EN" "http://www.w3.org/Graphics/SVG/1.1/DTD/svg11.dtd"><svg t="1628511205387" class="icon" viewBox="0 0 1227 1024" version="1.1" xmlns="http://www.w3.org/2000/svg" p-id="2810" xmlns:xlink="http://www.w3.org/1999/xlink" width="239.6484375" height="200"><defs><style type="text/css"></style></defs><path d="M277.078211 872.713202h109.525338v-52.605181h147.309516V152.07475L260.906433 212.784581c5.853358 8.254736 9.192774 18.272984 9.192774 29.154227 0 10.543549-3.18933 20.299146-8.667473 28.403796l158.415888 275.295445h15.158697c-7.279176 162.280605-441.928548 161.755304-434.574329 0h13.320143l-0.187608-0.150086 163.518816-275.032795a50.841669 50.841669 0 0 1 35.420321-78.945293l0.600345-13.807922 327.825583-119.581107a69.714998 69.714998 0 0 1 124.721557-27.578323L1012.12493 0l5.965922 11.481587a50.954234 50.954234 0 0 1 44.387967 50.428933c0 10.581071-3.226851 20.336668-8.742516 28.441318l158.490931 275.295445h15.083654c-7.241655 162.318127-441.928548 161.755304-434.574328 0h13.357663l-0.225129-0.150086 163.443773-275.032795a50.879191 50.879191 0 0 1-8.442344-33.394159l-276.15844 61.42274v701.615038h138.379392v52.605181h106.823788v150.949104H277.078211v-150.949104zM1025.707722 110.838591a52.267487 52.267487 0 0 1-28.216188 0.037522l-151.474406 254.77117h326.362244l-146.67165-254.808692zM233.403153 290.829358a52.004837 52.004837 0 0 1-28.216188 0.037521l-151.474406 254.77117h326.324723L233.403153 290.829358z" p-id="2811" fill="#2c2c2c"></path></svg>