<?xml version="1.0" standalone="no"?><!DOCTYPE svg PUBLIC "-//W3C//DTD SVG 1.1//EN" "http://www.w3.org/Graphics/SVG/1.1/DTD/svg11.dtd"><svg t="1628511286793" class="icon" viewBox="0 0 1024 1024" version="1.1" xmlns="http://www.w3.org/2000/svg" p-id="4147" xmlns:xlink="http://www.w3.org/1999/xlink" width="200" height="200"><defs><style type="text/css"></style></defs><path d="M523.579425 182.714564c48.812826 0 88.520985-39.75908 88.520985-88.7043s-39.708159-88.429327-88.520985-88.429327c-48.914668 0-88.571906 39.473923-88.571906 88.429327S474.664757 182.714564 523.579425 182.714564z" p-id="4148" fill="#2c2c2c"></path><path d="M607.904523 211.199745l-60.117277 0-24.258742 39.677607-24.207821-39.677607-68.916418 0c-127.108883 2.342364-122.55655 95.741576-122.55655 95.741576l0 123.147233 74.690854 0 0-106.83216 23.444007 0-0.091658 106.83216 223.929984 0L629.820901 322.350002l24.258742 0 0 107.738553 74.690854 0L728.770498 306.941322C720.592593 209.763775 607.904523 211.199745 607.904523 211.199745z" p-id="4149" fill="#2c2c2c"></path><path d="M259.982019 776.524168c48.812826 0 88.388591-39.667423 88.388591-88.531169 0-48.935036-39.575765-88.510801-88.388591-88.510801-48.914668 0-88.571906 39.585949-88.571906 88.510801C171.410113 736.866929 211.067351 776.524168 259.982019 776.524168z" p-id="4150" fill="#2c2c2c"></path><path d="M344.398775 805.192664l-60.310777 0-24.1569 39.667423-24.248558-39.667423-68.834945 0C39.697975 807.555396 44.301229 900.842583 44.301229 900.842583l-0.183315 123.147233 74.914906 0 0-106.83216 23.342165 0-0.050921 106.83216 223.838326 0L366.16239 916.179974l24.299479 0 0 107.809842 74.639933 0L465.101802 900.842583C457.005371 803.756693 344.398775 805.192664 344.398775 805.192664z" p-id="4151" fill="#2c2c2c"></path><path d="M783.612364 776.524168c48.812826 0 88.520985-39.667423 88.520985-88.531169 0-48.935036-39.708159-88.510801-88.520985-88.510801-48.904483 0-88.612643 39.585949-88.612643 88.510801C694.999722 736.866929 734.707881 776.524168 783.612364 776.524168z" p-id="4152" fill="#2c2c2c"></path><path d="M867.988384 805.192664l-60.219119 0-24.248558 39.667423-24.116163-39.667423L690.528862 805.192664c-127.14962 2.362732-122.648208 95.660103-122.648208 95.660103l-0.050921 123.147233 74.792696 0 0-106.83216 23.433823 0-0.091658 106.83216 223.879063 0L889.843657 916.179974l24.207821 0 0 107.809842 74.690854 0L988.742332 900.842583C980.635716 803.756693 867.988384 805.192664 867.988384 805.192664z" p-id="4153" fill="#2c2c2c"></path><path d="M629.321876 761.39046 650.270756 740.461949 533.081275 623.364125 533.081275 480.571588 503.516569 480.571588 503.516569 623.364125 386.225246 740.461949 407.235231 761.39046 510.05482 658.611608 526.512472 658.611608Z" p-id="4154" fill="#2c2c2c"></path></svg>